<svg width="50" height="64" viewBox="0 0 50 64" fill="none" xmlns="http://www.w3.org/2000/svg">
<path d="M25 63.5C10.35 59.4 0 45.45 0 29.335V7.5C8.81552 7.48841 17.4602 5.06789 25 0.5C32.5395 5.06836 41.1844 7.48892 50 7.5V29.335C50 45.5 39.625 59.405 25 63.5Z" fill="#FBCC88"/>
<path d="M50 27.835V29.335C50 45.335 39.74 59.37 25 63.5C10.26 59.37 0 45.355 0 29.335V27.835C0 43.835 10.26 57.87 25 62C39.74 57.87 50 43.855 50 27.835Z" fill="#A65BC9"/>
<path d="M25 59.325C12.58 55.325 4 43.145 4 29.325V11.325C11.3591 10.7526 18.5147 8.63488 25 5.10999C31.4842 8.64073 38.6397 10.7652 46 11.345V29.345C46 43.145 37.42 55.31 25 59.325Z" fill="#DDE1E8"/>
<path d="M38.5 25.5H11.5V46.5H38.5V25.5Z" fill="#C7CDD8"/>
<path d="M34.5 22V25.5H31.5C31.5 22.055 31.89 19.7 29.595 17.405C25.53 13.34 18.5 16.205 18.5 22V25.5H15.5V22C15.5 19.4804 16.5009 17.0641 18.2825 15.2825C20.0641 13.5009 22.4804 12.5 25 12.5C27.5196 12.5 29.9359 13.5009 31.7175 15.2825C33.4991 17.0641 34.5 19.4804 34.5 22V22Z" fill="#C7CDD8"/>
<path d="M46 27.835V29.335C46 43.145 37.42 55.335 25 59.335C12.58 55.335 4 43.155 4 29.335V27.835C4 41.645 12.58 53.835 25 57.835C37.42 53.81 46 41.645 46 27.835Z" fill="#C7CDD8"/>
<path d="M46 11.345V12.845C38.6397 12.2652 31.4842 10.1407 25 6.60999C18.5163 10.1418 11.3605 12.2664 4 12.845V11.345C11.3605 10.7664 18.5163 8.64185 25 5.10999C31.4842 8.64073 38.6397 10.7652 46 11.345V11.345Z" fill="#C7CDD8"/>
<path d="M38.5 23.5H11.5V44.5H38.5V23.5Z" fill="#949AAF"/>
<path d="M38.5 42.5H11.5V44.5H38.5V42.5Z" fill="#8288A1"/>
<path d="M34.5 20V23.5H31.5C31.5 20.055 31.89 17.7 29.595 15.405C25.53 11.34 18.5 14.205 18.5 20V23.5H15.5V20C15.5 17.4804 16.5009 15.0641 18.2825 13.2825C20.0641 11.5009 22.4804 10.5 25 10.5C27.5196 10.5 29.9359 11.5009 31.7175 13.2825C33.4991 15.0641 34.5 17.4804 34.5 20V20Z" fill="#949AAF"/>
<path d="M29.8199 39.74C28.8967 40.5165 27.7997 41.0587 26.6222 41.3208C25.4446 41.5829 24.2212 41.5571 23.0558 41.2456C21.8903 40.934 20.8173 40.346 19.9276 39.5312C19.0379 38.7165 18.3578 37.6992 17.9452 36.5656C17.5325 35.4321 17.3993 34.2157 17.557 33.0196C17.7147 31.8236 18.1586 30.6833 18.851 29.6954C19.5434 28.7075 20.4638 27.9012 21.5343 27.345C22.6047 26.7887 23.7936 26.4988 24.9999 26.5C31.9999 26.5 35.1499 35.28 29.8199 39.74Z" fill="#FBCC88"/>
<path d="M29.8198 39.74C24.6498 44.115 16.6498 39.81 17.5798 32.99C17.8268 34.7851 18.7153 36.4301 20.0811 37.6209C21.447 38.8117 23.1977 39.4677 25.0098 39.4677C26.8218 39.4677 28.5726 38.8117 29.9384 37.6209C31.3042 36.4301 32.1928 34.7851 32.4398 32.99C32.6126 34.245 32.4627 35.5234 32.0043 36.7044C31.5459 37.8855 30.794 38.9302 29.8198 39.74V39.74Z" fill="#F6B756"/>
<path d="M29.8099 39.745C28.4638 40.8792 26.7602 41.5012 24.9999 41.5012C23.2397 41.5012 21.5361 40.8792 20.1899 39.745C20.7499 37.36 22.5599 35 24.9999 35C27.4399 35 29.2499 37.36 29.8099 39.745Z" fill="#A37AD7"/>
<path d="M25 35C26.3807 35 27.5 33.8807 27.5 32.5C27.5 31.1193 26.3807 30 25 30C23.6193 30 22.5 31.1193 22.5 32.5C22.5 33.8807 23.6193 35 25 35Z" fill="#A37AD7"/>
<path d="M18.5 21.5H15.5V23.5H18.5V21.5Z" fill="#8288A1"/>
<path d="M34.5 21.5H31.5V23.5H34.5V21.5Z" fill="#8288A1"/>
<path d="M29.8099 39.745C28.4638 40.8792 26.7602 41.5012 24.9999 41.5012C23.2397 41.5012 21.5361 40.8792 20.1899 39.745C20.3169 39.2006 20.5048 38.6723 20.7499 38.17C21.9977 39.0367 23.4807 39.5012 24.9999 39.5012C26.5192 39.5012 28.0021 39.0367 29.2499 38.17C29.4951 38.6723 29.683 39.2006 29.8099 39.745Z" fill="#A65BC9"/>
</svg>